<svg width="68" height="68" viewBox="0 0 68 68" fill="none" xmlns="http://www.w3.org/2000/svg">
<path d="M33.518 52.1138C31.8726 52.1138 30.5386 50.7798 30.5386 49.1344V17.9016C30.5386 16.2562 31.8726 14.9222 33.518 14.9222C35.1634 14.9222 36.4974 16.2562 36.4974 17.9016V49.1344C36.4974 50.7798 35.1634 52.1138 33.518 52.1138Z" fill="black"/>
<path d="M49.1344 36.4974H17.9016C16.2562 36.4974 14.9222 35.1634 14.9222 33.518C14.9222 31.8726 16.2562 30.5386 17.9016 30.5386H49.1344C50.7798 30.5386 52.1138 31.8726 52.1138 33.518C52.1138 35.1634 50.7798 36.4974 49.1344 36.4974Z" fill="black"/>
<path d="M33.518 67.036C15.0362 67.036 0 51.9998 0 33.518C0 15.0362 15.0362 0 33.518 0C51.9998 0 67.036 15.0362 67.036 33.518C67.036 51.9998 51.9998 67.036 33.518 67.036ZM33.518 5.95876C18.3217 5.95876 5.95876 18.3217 5.95876 33.518C5.95876 48.7143 18.3217 61.0772 33.518 61.0772C48.7143 61.0772 61.0772 48.7143 61.0772 33.518C61.0772 18.3217 48.7143 5.95876 33.518 5.95876Z" fill="black"/>
</svg>
